HIERARCHY
ROOT hip
{
	OFFSET 0.000000 0.000000 0.000000 
	CHANNELS 6 Xposition Yposition Zposition Xrotation Zrotation Yrotation
	JOINT abdomen
	{
		OFFSET 0.000000 3.402643 0.000000 
		CHANNELS 3 Xrotation Zrotation Yrotation
		JOINT chest
		{
			OFFSET 0.000000 8.438565 -0.680529 
			CHANNELS 3 Xrotation Zrotation Yrotation
			JOINT neck
			{
				OFFSET 0.000000 9.885400 -0.272212 
				CHANNELS 3 Xrotation Zrotation Yrotation
				JOINT head
				{
					OFFSET 0.000000 3.130431 0.000000 
					CHANNELS 3 Xrotation Zrotation Yrotation
					End Site
					{
						OFFSET 0.000000 3.039250 0.000000 
					}
				}
			}
			JOINT lCollar
			{
				OFFSET 3.238290 6.669187 -0.816635 
				CHANNELS 3 Yrotation Zrotation Xrotation
				JOINT lShldr
				{
					OFFSET 2.515050 0.000000 0.000000 
					CHANNELS 3 Zrotation Yrotation Xrotation
					JOINT lForeArm
					{
						OFFSET 11.517700 0.000000 0.000000 
						CHANNELS 3 Yrotation Zrotation Xrotation
						JOINT lHand
						{
							OFFSET 9.026700 0.000000 0.000000 
							CHANNELS 3 Zrotation Yrotation Xrotation
							End Site
							{
								OFFSET 4.028470 0.000000 0.000000 
							}
						}
					}
				}
			}
			JOINT rCollar
			{
				OFFSET -3.238290 6.669187 -0.816635 
				CHANNELS 3 Yrotation Zrotation Xrotation
				JOINT rShldr
				{
					OFFSET -2.515050 0.000000 0.000000 
					CHANNELS 3 Zrotation Yrotation Xrotation
					JOINT rForeArm
					{
						OFFSET -11.517700 0.000000 0.000000 
						CHANNELS 3 Yrotation Zrotation Xrotation
						JOINT rHand
						{
							OFFSET -9.026700 0.000000 0.000000 
							CHANNELS 3 Zrotation Yrotation Xrotation
							End Site
							{
								OFFSET -4.028470 0.000000 0.000000 
							}
						}
					}
				}
			}
		}
	}
	JOINT lThigh
	{
		OFFSET 4.983750 -1.633274 1.361059 
		CHANNELS 3 Xrotation Zrotation Yrotation
		JOINT lShin
		{
			OFFSET -2.041588 -20.007561 0.000000 
			CHANNELS 3 Xrotation Zrotation Yrotation
			JOINT lFoot
			{
				OFFSET 0.000000 -19.190928 -1.224953 
				CHANNELS 3 Xrotation Yrotation Zrotation
				End Site
				{
					OFFSET 0.000000 -2.449906 4.627600 
				}
			}
		}
	}
	JOINT rThigh
	{
		OFFSET -4.983750 -1.633274 1.361059 
		CHANNELS 3 Xrotation Zrotation Yrotation
		JOINT rShin
		{
			OFFSET 2.041588 -20.007561 0.000000 
			CHANNELS 3 Xrotation Zrotation Yrotation
			JOINT rFoot
			{
				OFFSET 0.000000 -19.190928 -1.224953 
				CHANNELS 3 Xrotation Yrotation Zrotation
				End Site
				{
					OFFSET 0.000000 -2.449906 4.627600 
				}
			}
		}
	}
}
MOTION
Frames: 20
Frame Time: 0.066426
0.000000 48.634289 0.000000 6.154700 1.582630 -0.668999 -4.130280 1.375415 -2.140047 -1.770120 0.589464 -0.917163 35.753502 1.332800 -3.764560 22.091801 3.408030 -0.863537 2.000000 -2.000000 0.020256 -87.959503 0.088576 -158.770004 51.494598 -0.299968 0.107043 -179.912003 -179.889999 -0.173640 -2.000000 2.000000 0.020256 -97.938904 174.781006 -1.578470 -45.273899 0.311059 0.097138 -0.081919 0.073356 -164.128998 -5.537812 -3.333166 -1.270528 36.647846 2.865369 2.558093 -38.985916 12.307521 7.093263 -21.786804 3.759259 -2.488045 35.764889 -2.078053 -2.837869 -27.955133 3.954508 1.013739 
-3.428293 48.449730 4.624815 4.874780 1.527660 -3.336310 -4.928349 0.741164 -2.180206 -2.112150 0.317642 -0.934374 36.245701 -0.201447 -2.863650 22.144800 3.137620 -0.313838 2.000000 -2.000000 0.000000 -86.400597 5.802860 -162.492996 53.076698 -0.296981 0.109351 -179.912003 -179.889999 -0.251765 -2.000000 2.000000 0.000000 -95.732101 175.494003 2.570110 -45.293400 0.311026 0.097171 -0.081152 0.071844 -163.522995 -2.842726 -2.875966 0.086092 36.449242 3.090806 2.465858 -39.431919 12.047197 6.956275 -19.868645 4.588263 -2.628805 36.507900 -2.092119 -2.844997 -27.100803 6.108594 2.403190 
-6.715704 48.515995 8.963152 4.650890 1.859100 -4.838780 -5.133659 1.023576 -2.183783 -2.200140 0.438675 -0.935907 36.022999 -1.195620 -2.585090 22.063499 2.981350 -0.164402 2.000000 -2.000000 0.000000 -86.012398 9.274680 -164.570999 53.701698 -0.295784 0.110241 -179.910995 -179.880005 -0.437293 -2.000000 2.000000 0.000000 -95.273499 176.026001 4.208710 -43.428200 0.314138 0.093989 -0.080341 0.070202 -162.869003 -3.978016 -2.915405 -1.202677 40.540482 2.889023 2.712222 -36.479515 10.705460 5.345700 -18.543419 4.644737 -2.843685 35.611752 -2.145453 -2.783740 -25.489923 8.176428 3.445829 
-9.904985 48.906502 13.053987 4.199340 0.438273 -6.774390 -5.060300 1.681113 -1.183986 -2.168700 0.720477 -0.507422 35.223499 -1.428680 -2.727910 21.681999 2.979250 -0.284850 2.000000 -2.000000 0.000000 -84.811600 10.603600 -164.223007 55.596199 -0.292097 0.112856 -179.914001 -179.893005 1.261920 -2.000000 2.000000 0.000000 -95.937302 176.089996 2.578360 -39.668400 0.320087 0.087275 -0.080281 0.070079 -162.820007 -7.753317 -0.872521 -4.596061 49.622749 2.390110 3.225138 -26.923227 7.670270 2.317868 -15.674176 6.577652 -1.646943 30.944504 -2.241430 -2.509322 -22.933523 8.697020 3.490172 
-12.866766 49.275864 17.010012 3.750110 0.438512 -9.219230 -4.889500 2.422469 0.177339 -2.095500 1.038201 0.076003 34.742802 -1.538040 -2.748160 21.438499 3.030380 -0.331775 2.000000 -2.000000 0.000000 -83.367699 12.760600 -164.755005 60.127499 -0.282944 0.118605 -179.912003 -179.891006 0.158410 -2.000000 2.000000 0.000000 -97.167297 174.098007 -1.371660 -32.861698 0.329688 0.074187 -0.074683 0.057131 -157.781006 -11.175359 -1.116132 -8.928674 54.824871 1.991225 3.505013 -25.315460 5.139820 0.905591 -14.040928 6.341437 -0.849273 27.781555 -2.350249 -2.276406 -19.644398 10.026736 3.626159 
-15.844283 49.586021 21.006578 3.564760 0.750498 -11.193400 -4.583180 3.053904 1.075122 -1.964220 1.308816 0.460766 34.459301 -1.813450 -2.850550 21.210899 2.885310 -0.370760 2.000000 -2.000000 0.000000 -81.739197 15.433400 -166.061996 63.760300 -0.275296 0.122680 -179.908997 -179.878006 -1.404090 -2.000000 2.000000 0.000000 82.587997 8.476440 171.848007 -27.383101 0.336246 0.062884 -0.059547 0.040310 -151.473007 -13.061106 -1.310098 -12.897387 53.961700 2.038053 3.482950 -23.417540 6.155243 1.392732 -13.295430 5.814570 -0.775331 26.184885 -2.395297 -2.170306 -17.258034 10.347148 3.405736 
-18.866476 49.621395 25.010408 3.779900 1.023160 -11.963500 -4.309269 3.060708 1.047905 -1.846830 1.311732 0.449102 33.902302 -1.791830 -2.843610 20.887300 2.834900 -0.355150 2.000000 -2.000000 0.000000 -80.305801 17.108999 -167.804001 64.951698 -0.272733 0.123910 -179.906998 -179.875000 -2.644310 -2.000000 2.000000 0.000000 83.221802 9.069130 168.977005 -27.871401 0.335705 0.063916 -0.060681 0.044451 -153.005997 -13.748380 -0.799185 -16.624765 45.905144 2.471566 3.063982 -15.427899 2.970514 0.169495 -13.813041 5.605315 -0.681163 26.940809 -2.397614 -2.195716 -17.376423 9.894835 3.272260 
-21.777874 49.088490 28.870493 4.436010 1.888860 -12.197000 -4.038789 2.499245 0.785340 -1.730910 1.071105 0.336574 32.678101 -1.401010 -2.967670 20.330200 2.853690 -0.428815 2.000000 -2.000000 0.000000 -79.475899 16.442101 -169.033005 63.906799 -0.274982 0.122834 -179.906998 -179.875000 -2.771270 -2.000000 2.000000 0.000000 -96.035202 172.227005 -7.989340 -32.119499 0.330639 0.072693 -0.074087 0.055543 -157.175995 -12.648336 -0.600867 -19.983463 32.844265 3.075623 2.273233 -4.559584 -1.260470 -0.027192 -17.343056 4.802129 -0.320282 32.678905 -2.261020 -2.577010 -19.947008 11.016892 4.084528 
-24.568089 48.358227 32.662224 5.123410 2.820730 -13.399400 -3.551940 2.193233 0.425676 -1.522260 0.939957 0.182432 31.481300 -1.702040 -2.703250 19.742201 2.778730 -0.286516 2.000000 -2.000000 0.000000 -80.119400 14.212800 -170.169998 62.461498 -0.278060 0.121279 -179.904999 -179.873993 -3.484160 -2.000000 2.000000 0.000000 -95.936600 172.824005 -3.243430 -35.088299 0.326719 0.078593 -0.075557 0.059373 -158.639999 -11.042953 -0.822812 -21.429600 23.030703 3.350952 1.615940 0.862178 1.348635 0.531077 -21.726561 3.432155 -0.680253 39.051815 -2.028619 -3.009300 -21.158834 13.255789 5.192570 
-27.181391 47.301399 36.353546 5.458430 3.324730 -15.786000 -3.243450 1.992666 0.267553 -1.390050 0.854000 0.114665 30.921000 -2.624100 -2.251800 19.424900 2.482370 0.005976 2.000000 -2.000000 0.000000 -81.162300 10.639600 -169.761993 60.625500 -0.281911 0.119192 -179.906006 -179.875000 -3.005640 -2.000000 2.000000 0.000000 -96.024200 172.548996 -0.127483 -36.025799 0.325418 0.080413 -0.075086 0.058177 -158.181000 -9.735226 -1.557683 -19.798025 25.210888 3.386863 1.758544 -1.428876 3.800954 0.457613 -27.170773 2.256100 0.029030 46.525475 -1.699692 -3.424695 -21.689661 15.884445 6.315348 
-29.849863 45.422798 40.155556 5.040030 3.735540 -19.045200 -3.482150 1.945199 0.546749 -1.492350 0.833657 0.234321 31.670601 -3.642600 -1.648770 19.840599 2.138160 0.425975 2.000000 -2.000000 0.000000 -81.276604 6.515410 -166.889008 60.176300 -0.282843 0.118663 -179.906006 -179.875000 -2.898220 -2.000000 2.000000 0.000000 -96.161102 172.873993 1.209590 -36.572601 0.324646 0.081464 -0.075435 0.059068 -158.522995 -5.756037 -1.510649 -18.127804 30.751036 3.643168 2.016130 -7.738918 -4.116318 -1.277624 -33.956284 1.426654 2.084144 56.281311 -1.121605 -3.911658 -22.300617 18.598280 7.433722 
-32.971684 43.626602 44.313736 5.968860 4.866180 -20.555599 -3.489150 1.267300 0.135325 -1.495350 0.543129 0.057996 32.059601 -4.732000 -1.147120 20.031300 1.732050 0.795947 2.000000 -2.000000 0.000000 -80.726898 1.415550 -163.606995 59.775902 -0.283671 0.118185 -179.906998 -179.875000 -2.810330 -2.000000 2.000000 0.000000 -95.702301 173.567001 1.149230 -36.699600 0.324465 0.081708 -0.076474 0.061627 -159.509995 -1.244495 -0.436525 -16.437502 31.126026 4.025067 1.977028 -7.130346 -8.934913 -1.952055 -41.613605 -0.050351 3.261142 64.306221 -0.552267 -4.257644 -22.134346 20.739971 7.949245 
-36.927380 42.643990 49.118706 6.662070 4.588080 -18.673000 -3.903900 1.000469 -1.151095 -1.673100 0.428772 -0.493326 33.250702 -5.492730 -0.707585 20.733999 1.658840 1.070930 2.000000 -2.000000 0.000000 -81.780197 -2.339410 -161.488998 59.150902 -0.284955 0.117427 -179.910004 -179.878998 -0.896275 -2.000000 2.000000 0.000000 -96.103302 176.781006 1.570730 -37.060902 0.323948 0.082397 -0.077932 0.065019 -160.828003 10.459494 -1.177958 -15.121181 19.445829 15.587965 2.072640 -8.992468 2.619327 -5.784592 -44.646954 -0.943393 2.558676 67.642380 -0.272010 -4.391905 -23.376081 20.866425 8.254023 
-41.666786 43.149208 54.372890 7.281130 3.729530 -13.898600 -4.081350 0.613221 -2.910089 -1.749150 0.262809 -1.247181 33.961300 -5.712740 -0.383531 21.232500 1.681360 1.260000 2.000000 -2.000000 0.000000 -82.824402 -2.737700 -160.559998 61.904800 -0.279235 0.120659 -179.908005 -179.876999 -1.941190 -2.000000 2.000000 0.000000 -96.738503 179.822006 3.144970 -35.644901 0.325951 0.079676 -0.077027 0.062937 -160.016998 11.849656 1.507598 -14.253538 22.633032 17.714598 2.834043 -5.461637 18.816160 -5.886917 -42.632111 -1.834402 -0.567196 65.877853 -0.400006 -4.350121 -25.443972 18.920315 8.094774 
-46.594841 44.487976 59.358688 7.731540 3.754720 -8.318560 -4.652830 0.134624 -3.287235 -1.994070 0.057696 -1.408815 33.355400 -3.581810 -0.925400 20.987900 2.403410 0.827731 2.000000 -2.000000 0.000000 -83.407402 -4.663020 -156.835999 64.649002 -0.273387 0.123603 -179.901001 -179.878998 -0.866978 -2.000000 2.000000 0.000000 -97.373100 -178.138000 2.739710 -36.484798 0.324771 0.081296 -0.077027 0.062937 -160.016998 5.140193 6.592632 -15.501660 35.818211 6.241143 2.139854 -6.718768 30.987803 2.032466 -38.601696 -2.150773 -3.390233 61.357487 -0.707200 -4.190858 -28.137722 14.482793 6.807105 
-51.312920 45.710648 63.968884 7.228260 1.240070 -2.899200 -4.741660 -0.514240 -2.467444 -2.032140 -0.220388 -1.057476 32.542301 -0.425079 -2.211330 20.720800 3.352350 -0.052981 2.000000 -2.000000 0.000000 -83.960503 -8.032820 -152.610992 66.543503 -0.269270 0.125470 -179.914993 -179.893997 1.759970 -2.000000 2.000000 0.000000 -97.998100 -177.923996 2.289980 -37.861698 0.322786 0.083914 -0.078143 0.065494 -161.013000 -5.884705 9.455554 -9.166092 57.118961 2.592962 3.389143 -7.532670 5.926301 1.743378 -33.020115 1.221303 -6.019546 55.591904 -1.060168 -3.973344 -30.631401 9.511021 4.646449 
-55.974705 46.616623 68.589012 6.904370 0.261760 4.143070 -4.764200 -0.772850 -2.397038 -2.041800 -0.331222 -1.027302 32.529301 1.452860 -3.488190 20.819500 3.855450 -0.852200 2.000000 -2.000000 0.000000 -84.339699 -8.800730 -150.910004 68.213402 -0.265592 0.127002 -179.917007 -179.886002 2.658420 -2.000000 2.000000 0.000000 -98.945396 -177.824005 3.266310 -40.556999 0.318720 0.088897 -0.080317 0.070152 -162.848999 -16.054283 8.102498 -4.162003 70.265320 1.041527 4.069412 -18.453665 -2.690776 -1.497709 -28.770079 2.816029 -8.724205 50.706085 -1.339419 -3.734929 -33.253094 5.874592 2.562174 
-60.704075 47.404186 73.481216 7.051860 -0.998252 11.087300 -4.620979 -0.624638 -2.544066 -1.980420 -0.267702 -1.090314 31.923300 3.098300 -4.642160 20.622900 4.243730 -1.542240 2.000000 -2.000000 0.000000 -83.655899 -7.941500 -150.979996 68.223198 -0.265571 0.127011 -179.914993 -179.893005 1.476760 -2.000000 2.000000 0.000000 -99.072197 -175.959000 3.358830 -46.270000 0.309356 0.098796 -0.084118 0.087249 -165.798996 -20.642982 6.344122 2.028988 67.813095 0.790771 4.138312 -31.074991 3.904644 0.534824 -25.465336 5.074724 -10.734816 45.075909 -1.573586 -3.463819 -35.206783 2.773751 0.320755 
-65.424942 48.058071 78.602608 6.745460 -2.637890 18.086399 -4.293800 -0.428995 -3.765083 -1.840200 -0.183855 -1.613607 30.963301 4.515470 -5.329420 20.160601 4.564490 -1.936140 2.000000 -2.000000 0.000000 -81.938499 -6.460350 -152.516006 66.650902 -0.269035 0.125572 -179.910995 -179.889999 -0.408014 -2.000000 2.000000 0.000000 -98.368896 -173.942993 5.023620 -51.777802 0.299437 0.107411 -0.078295 0.094003 -168.591995 -19.704212 4.609130 1.454611 54.407719 1.601847 3.673495 -37.004921 13.195903 7.504755 -23.643873 7.015896 -11.856937 40.378048 -1.698123 -3.222989 -37.120094 0.685399 -1.628649 
-70.010452 48.396935 83.510338 6.442540 -4.124270 24.915400 -3.838169 0.589666 -5.753545 -1.644930 0.252714 -2.465805 29.791300 6.099480 -5.834180 19.651600 4.972320 -2.208250 2.000000 -2.000000 0.000000 -80.484497 -6.921310 -153.442993 63.877499 -0.275045 0.122804 -179.908997 -179.878006 -1.550570 -2.000000 2.000000 0.000000 -97.900398 -172.677994 7.394710 -56.787601 0.289735 0.114388 -0.079207 0.085699 -169.207001 -17.758709 3.606864 -5.070350 46.860153 2.119034 3.239110 -39.030205 7.975374 3.194977 -25.283234 7.228011 -9.871209 40.390503 -1.664254 -3.249466 -39.195782 -1.564218 -4.154380 
